<svg xmlns="http://www.w3.org/2000/svg" width="163" height="163" viewBox="0 0 163 163" fill="none" xmlns:xlink="http://www.w3.org/1999/xlink"><path fill-rule="evenodd" clip-rule="evenodd" d="M69.3676 1.02337C11.0086 11.5604 -17.7964 76.6954 14.2166 125.734C46.0276 174.462 117.57 174.923 149.408 126.604C159.769 110.88 163.394 97.8324 162.772 78.5004C162.406 67.1324 161.948 64.3074 159.126 56.0004C155.086 44.1064 149.633 34.8184 141.735 26.3754C130.97 14.8674 116.753 6.35337 102.001 2.58137C94.1916 0.58437 76.4826 -0.26163 69.3676 1.02337ZM71.0006 36.4314C50.6796 42.0854 36.9816 59.9274 36.7276 81.0734C36.3096 115.722 72.8326 138.417 103.97 122.857C107.287 121.2 110.001 119.442 110.001 118.951C110.001 118.237 101.532 103.243 100.56 102.235C100.42 102.09 98.0986 103.215 95.4026 104.735C88.9156 108.394 77.7706 108.656 71.4326 105.299C66.4796 102.676 60.5816 96.3264 58.5236 91.4004C56.4046 86.3304 56.5846 75.5124 58.8716 70.4784C62.3616 62.7964 73.1186 55.0354 80.3106 55.0104C82.8756 55.0014 83.4986 54.1914 87.4346 45.7504C89.8066 40.6634 91.5536 36.1634 91.3156 35.7504C90.6286 34.5604 75.9556 35.0524 71.0006 36.4314ZM102.501 38.9544C101.401 39.4094 99.4816 40.8794 98.2346 42.2224C95.9986 44.6314 95.9946 44.6844 97.9086 46.4174C99.7646 48.0974 99.9776 48.0774 102.845 45.9584C104.975 44.3824 106.585 43.9304 108.421 44.3904C112.108 45.3164 111.813 48.6544 107.853 50.7974C102.224 53.8434 98.0746 58.0744 97.0306 61.8324C95.2756 68.1504 95.0466 68.0004 106.501 68.0004H117.001V65.0004V62.0004H110.418C102.426 62.0004 102.31 60.7594 109.916 56.6334C116.23 53.2084 118.593 48.9964 116.909 44.1664C115.242 39.3844 107.891 36.7254 102.501 38.9544ZM86.6836 84.7504L81.1486 94.5004L92.7726 95.0004L104.396 95.5004L109.449 104.198C112.227 108.983 114.794 113.176 115.153 113.517C115.511 113.857 118.355 109.802 121.472 104.505L127.141 94.8744L121.465 84.9374L115.789 75.0004H104.004H92.2196L86.6836 84.7504Z" fill="#FF482B"></path></svg>